<svg xmlns="http://www.w3.org/2000/svg" xmlns:xlink="http://www.w3.org/1999/xlink" width="247.248" height="60.546" viewBox="0 0 247.248 60.546"><defs><style>.a{fill:#7c24ef;}.b{clip-path:url(#a);}.c{fill:#1660ea;}</style><clipPath id="a"><path class="a" d="M506.126,410.9l.028-9.872,4.93,2.845a8.789,8.789,0,0,1,4.394,7.636l-.014,4.781Z" transform="translate(-506.126 -401.025)"/></clipPath></defs><g transform="translate(0 0)"><g transform="translate(17.956 23.092)"><g transform="translate(0 0)"><g class="b"><g transform="translate(0.017 0.267)"><g transform="translate(0 0)"><path class="a" d="M515.536,407.026l-8.791-5.075a.366.366,0,0,0-.549.317l-.014,4.677a7.877,7.877,0,0,0,3.938,6.843l4.839,2.795a.366.366,0,0,0,.549-.317l.026-9.24" transform="translate(-506.182 -401.902)"/></g></g></g></g></g><path class="c" d="M447.205,359.2v28.039a8.477,8.477,0,0,0,4.117,7.269l24.286,14.572a.361.361,0,0,0,.555-.313V400.1a7.687,7.687,0,0,0-3.4-6.382l-5.917-3.975a.366.366,0,0,0-.571.3l-.069,5.8a.366.366,0,0,1-.555.309l-8.746-5.3a8.4,8.4,0,0,1-3.953-7.346l.2-7.8a.363.363,0,0,1,.543-.308l5.155,2.821a.359.359,0,0,0,.543-.319V370.38a8.332,8.332,0,0,0-4.191-7.228l-7.449-4.269a.361.361,0,0,0-.555.317Z" transform="translate(-447.199 -348.594)"/><path class="a" d="M506.677,364.009l14.118,7.835a9.1,9.1,0,0,1,4.683,8.115l-.291,16.909a.362.362,0,0,1-.553.308l-1.431-.848a8.911,8.911,0,0,1-4.366-7.8l.09-5.967a6.858,6.858,0,0,0-3.5-6.083l-5.787-3.247a6.86,6.86,0,0,1-3.5-5.982v-2.914a.359.359,0,0,1,.541-.32Z" transform="translate(-488.177 -352.168)"/><path class="a" d="M506.921,325.613a.364.364,0,0,1,.548-.32l23.868,13.719a8.473,8.473,0,0,1,4.36,7.555l-.275,27.744a.369.369,0,0,1-.551.315l-1.29-.764a8.3,8.3,0,0,1-4.068-7.262l.083-17.611a6.385,6.385,0,0,0-3.26-5.664l-16.153-9.481a6.384,6.384,0,0,1-3.263-5.568Z" transform="translate(-488.721 -325.243)"/></g><g transform="translate(63.294 17.278)"><path class="a" d="M377.979,115.588h-3.641a.546.546,0,0,0-.546.545V117.7l-.531-.635a5.8,5.8,0,0,0-1.8-1.2,6.293,6.293,0,0,0-2.762-.62,7.178,7.178,0,0,0-5.34,2.563,8.832,8.832,0,0,0,0,12.092,7.178,7.178,0,0,0,5.342,2.564,6.314,6.314,0,0,0,1.827-.265,6.062,6.062,0,0,0,1.424-.6,7.293,7.293,0,0,0,1.011-.755q.472-.418.62-.583a2.58,2.58,0,0,0,.214-.266V131.4a4.235,4.235,0,0,1-4.568,4.563,5.775,5.775,0,0,1-2.643-.626,6.038,6.038,0,0,1-1.587-1.02c-.057-.063-.113-.126-.169-.191a.542.542,0,0,0-.783-.035l-2.18,2.055a.547.547,0,0,0-.046.742,5.53,5.53,0,0,0,.943.928,12.246,12.246,0,0,0,1.56,1.073,9.813,9.813,0,0,0,2.246.908,10.331,10.331,0,0,0,2.83.387,8.983,8.983,0,0,0,6.525-2.53,8.379,8.379,0,0,0,2.6-6.251V116.132a.546.546,0,0,0-.544-.545Zm-5.4,11.251a3.844,3.844,0,0,1-2.831,1.235,3.608,3.608,0,0,1-2.744-1.2,4.627,4.627,0,0,1,0-6.044,3.625,3.625,0,0,1,2.743-1.195,3.85,3.85,0,0,1,2.831,1.226,4.3,4.3,0,0,1,0,5.977Z" transform="translate(-194.571 -107.869)"/><path class="a" d="M356.256,117.28a6.214,6.214,0,0,0-4.811-2.04,5.6,5.6,0,0,0-2.685.687,7.3,7.3,0,0,0-1.655,1.089,8.676,8.676,0,0,0-.582.676v-1.43a.679.679,0,0,0-.679-.679h-3.376a.679.679,0,0,0-.679.679v15.86a.679.679,0,0,0,.679.679h3.376a.679.679,0,0,0,.679-.679v-8.272a4.314,4.314,0,0,1,.951-2.994,3.284,3.284,0,0,1,2.564-1.053,3.2,3.2,0,0,1,2.411.967,3.524,3.524,0,0,1,.936,2.548v8.8a.679.679,0,0,0,.678.679h3.375a.679.679,0,0,0,.679-.679v-9.334a7.866,7.866,0,0,0-1.86-5.507Z" transform="translate(-194.32 -107.866)"/><g transform="translate(139.313 0.168)"><path class="a" d="M338.075,107.913a2.852,2.852,0,0,0-2.058-.721,2.48,2.48,0,0,0-2.625,2.632,2.607,2.607,0,0,0,.712,1.913,2.575,2.575,0,0,0,1.913.721,2.863,2.863,0,0,0,2.058-.721,2.8,2.8,0,0,0,0-3.825Z" transform="translate(-333.388 -107.188)"/><rect class="a" width="4.751" height="17.219" rx="0.759" transform="translate(0.348 7.55)"/></g><path class="a" d="M330.5,130.965l-4.691-8.3.445-.24a4.8,4.8,0,0,0,1.113-.772,10.109,10.109,0,0,0,1.277-1.355,7.3,7.3,0,0,0,1.089-2.076,8.029,8.029,0,0,0,.464-2.76,7.721,7.721,0,0,0-2.392-5.737,8.3,8.3,0,0,0-6.046-2.341H311.547a.678.678,0,0,0-.678.678V131.3a.678.678,0,0,0,.678.679h3.926a.678.678,0,0,0,.679-.679v-7.254a.678.678,0,0,1,.678-.678h3.482a.677.677,0,0,1,.594.351l4.347,7.908a.677.677,0,0,0,.594.351h4.063a.678.678,0,0,0,.587-1.011Zm-6.517-13.248a3.32,3.32,0,0,1-2.394.918h-4.758a.678.678,0,0,1-.678-.679v-5.143a.679.679,0,0,1,.678-.679h4.758a3.272,3.272,0,0,1,2.394.944,3.218,3.218,0,0,1,.951,2.384,3.02,3.02,0,0,1-.951,2.255Z" transform="translate(-194.068 -107.041)"/><path class="c" d="M305.58,107.384H302.2a.678.678,0,0,0-.678.678v8.8l-.531-.635a6.109,6.109,0,0,0-1.809-1.2,6.277,6.277,0,0,0-2.752-.617,7.742,7.742,0,0,0-5.807,2.6,9.432,9.432,0,0,0,0,12.706,7.74,7.74,0,0,0,5.807,2.6,6.391,6.391,0,0,0,1.816-.257,6.073,6.073,0,0,0,1.424-.593,6.9,6.9,0,0,0,1.02-.755c.315-.278.522-.474.62-.582a2.66,2.66,0,0,0,.214-.266v1.431a.678.678,0,0,0,.678.679h3.378a.678.678,0,0,0,.678-.679v-23.23a.678.678,0,0,0-.676-.678Zm-5.285,19.4a4,4,0,0,1-5.971,0,5.322,5.322,0,0,1,0-6.817,4.017,4.017,0,0,1,5.971,0,5.325,5.325,0,0,1,0,6.817Z" transform="translate(-194.851 -107.041)"/><path class="c" d="M284.155,123.853a8.4,8.4,0,0,0-8.593-8.611,9,9,0,0,0-8.97,8.952,8.548,8.548,0,0,0,2.675,6.321,8.883,8.883,0,0,0,6.466,2.632,10.951,10.951,0,0,0,2.6-.308,9.685,9.685,0,0,0,2.051-.712,11.115,11.115,0,0,0,1.49-.918,9.237,9.237,0,0,0,.918-.728.5.5,0,0,0,.148-.359.512.512,0,0,0-.107-.314l-1.811-2.331a.509.509,0,0,0-.774-.036l-.093.093a4.815,4.815,0,0,1-1.6,1.054,5.893,5.893,0,0,1-2.48.522,4.778,4.778,0,0,1-3.071-.97,3.944,3.944,0,0,1-1.487-2.364h12.47Zm-12.641-1.406A4.638,4.638,0,0,1,273,120.165a3.889,3.889,0,0,1,2.563-.875,3.771,3.771,0,0,1,2.547.893,3.9,3.9,0,0,1,1.312,2.264Z" transform="translate(-193.509 -107.868)"/><g transform="translate(64.926 0.167)"><path class="c" d="M262.881,107.912a2.831,2.831,0,0,0-2.048-.721,2.635,2.635,0,1,0,0,5.265,2.833,2.833,0,0,0,2.04-.721,2.515,2.515,0,0,0,.755-1.912,2.542,2.542,0,0,0-.746-1.913Z" transform="translate(-258.088 -107.187)"/><path class="c" d="M259.233,116.219a.679.679,0,0,0-.679.679v3.539h.019v11.79a.679.679,0,0,0,.679.679h3.393a.679.679,0,0,0,.679-.679V116.9a.679.679,0,0,0-.679-.679Z" transform="translate(-258.129 -108.137)"/></g><path class="c" d="M252.141,107.137a9.018,9.018,0,0,0-1.559-.137q-5.454,0-5.454,5.967v2.282h-2.452v4.218h2.452v12.47h4.75V119.468h3.858V115.25h-3.857v-2.109a1.791,1.791,0,0,1,.6-1.363,2.133,2.133,0,0,1,1.51-.557,3.966,3.966,0,0,1,1.077.114.541.541,0,0,0,.67-.522v-2.884a.542.542,0,0,0-.376-.516h0a9.794,9.794,0,0,0-1.218-.274Z" transform="translate(-191.452 -107)"/><g transform="translate(43.066 0.166)"><path class="c" d="M239.533,107.911a2.86,2.86,0,0,0-2.058-.721,2.476,2.476,0,0,0-2.625,2.633,2.6,2.6,0,0,0,.712,1.912,2.564,2.564,0,0,0,1.913.721,2.856,2.856,0,0,0,2.058-.721,2.8,2.8,0,0,0,0-3.825Z" transform="translate(-234.845 -107.185)"/><rect class="c" width="4.751" height="17.219" rx="0.759" transform="translate(0.352 7.552)"/></g><path class="c" d="M229.354,117.279a6.214,6.214,0,0,0-4.812-2.04,5.6,5.6,0,0,0-2.684.687,7.277,7.277,0,0,0-1.654,1.089c-.206.215-.4.442-.584.676v-1.43a.678.678,0,0,0-.678-.679h-3.375a.678.678,0,0,0-.679.679v15.86a.678.678,0,0,0,.679.679h3.375a.678.678,0,0,0,.678-.679v-8.272a4.31,4.31,0,0,1,.953-2.994,3.281,3.281,0,0,1,2.563-1.053,3.2,3.2,0,0,1,2.411.967,3.524,3.524,0,0,1,.934,2.548v8.8a.68.68,0,0,0,.68.679h3.376a.678.678,0,0,0,.678-.679v-9.334a7.861,7.861,0,0,0-1.861-5.507Z" transform="translate(-190.744 -107.866)"/><path class="c" d="M209.777,107.383h-3.907a.68.68,0,0,0-.681.678v13.9a5.742,5.742,0,0,1-1.594,4.134,5.273,5.273,0,0,1-7.693-.01,5.732,5.732,0,0,1-1.6-4.124v-13.9a.678.678,0,0,0-.678-.678h-3.908a.679.679,0,0,0-.679.678v13.9a10.172,10.172,0,0,0,3.052,7.52,11.2,11.2,0,0,0,15.316,0,10.166,10.166,0,0,0,3.053-7.521v-13.9a.679.679,0,0,0-.678-.678Z" transform="translate(-189.031 -107.039)"/></g></svg>