<svg id="Group_73818" data-name="Group 73818" xmlns="http://www.w3.org/2000/svg" width="21.787" height="28" viewBox="0 0 21.787 28">
  <g id="Group_68289" data-name="Group 68289" transform="translate(8.382)">
    <path id="Path_61093" data-name="Path 61093" d="M115.756,103.946a4.126,4.126,0,0,0-.364-1.951,4.059,4.059,0,0,0-1.591-1.371l-1.952-1.085a.17.17,0,0,0-.252.148v2.578a3.193,3.193,0,0,0,1.113,2.437,3.392,3.392,0,0,0,.54.369l2.255,1.25a.169.169,0,0,0,.251-.148Z" transform="translate(-111.596 -88.945)" fill="#a8aebb"/>
    <path id="Path_61094" data-name="Path 61094" d="M120.377,96.539a7.149,7.149,0,0,0-.046-.874,3.247,3.247,0,0,0-1.258-2.134,7.077,7.077,0,0,0-.742-.464l-6.479-3.592a.173.173,0,0,0-.085-.023.171.171,0,0,0-.171.171V90.81a2.8,2.8,0,0,0,1.52,2.557l2.7,1.5a3.023,3.023,0,0,1,1.768,3v3.09a2.8,2.8,0,0,0,1.5,2.569l1.038.575a.171.171,0,0,0,.232-.067.167.167,0,0,0,.021-.085Z" transform="translate(-111.596 -84.161)" fill="#a8aebb"/>
    <path id="Path_61095" data-name="Path 61095" d="M124.509,87.659c-.059-.142-.124-.281-.2-.418a6.513,6.513,0,0,0-2.68-2.429l-9.78-5.423a.181.181,0,0,0-.086-.023.171.171,0,0,0-.171.171v1.246a2.833,2.833,0,0,0,1.524,2.5l6.549,3.633a5.57,5.57,0,0,1,1.938,1.5,4.9,4.9,0,0,1,.6,2.82v7.472a2.83,2.83,0,0,0,1.445,2.548l1.089.6a.17.17,0,0,0,.232-.066.186.186,0,0,0,.027-.086V90.55A7.777,7.777,0,0,0,124.509,87.659Z" transform="translate(-111.596 -79.367)" fill="#a8aebb"/>
  </g>
  <path id="Path_61096" data-name="Path 61096" d="M110,106.831a4,4,0,0,0-2.047-3.39l-3.684-2.038a.171.171,0,0,0-.08-.023.178.178,0,0,0-.179.171l.005,2.613a.18.18,0,0,1-.019.079.172.172,0,0,1-.231.072l-3.278-1.814a3.549,3.549,0,0,1-2.079-3.525V95.23a.171.171,0,0,1,.175-.167.168.168,0,0,1,.078.021l2.284,1.269a.179.179,0,0,0,.237-.074.172.172,0,0,0,.018-.08V91.988a4,4,0,0,0-1.975-3.432l-3.353-1.861a.171.171,0,0,0-.234.063.175.175,0,0,0-.023.086v13.818a3.669,3.669,0,0,0,2.045,3.467l12.091,6.689a.176.176,0,0,0,.086.021.17.17,0,0,0,.168-.174Z" transform="translate(-95.62 -82.839)" fill="#a8aebb"/>
</svg>
